<svg width="300" height="58" viewBox="0 0 300 58" fill="none" xmlns="http://www.w3.org/2000/svg">
<path d="M37.9688 56.2188H16.0312C14.6332 56.2188 13.5 55.0226 13.5 53.5469V5.45312C13.5 3.97736 14.6332 2.78125 16.0312 2.78125H37.9688C39.3668 2.78125 40.5 3.97736 40.5 5.45312V53.5469C40.5 55.0226 39.3668 56.2188 37.9688 56.2188Z" fill="#58616C"/>
<path d="M37.9688 53.5469V5.45312C37.9688 3.97736 36.8356 2.78125 35.4375 2.78125H16.0312C14.6332 2.78125 13.5 3.97736 13.5 5.45312V53.5469C13.5 55.0226 14.6332 56.2188 16.0312 56.2188H35.4375C36.8356 56.2188 37.9688 55.0226 37.9688 53.5469Z" fill="#758190"/>
<path d="M18.5625 2.78125L21.9375 6.34375H32.0625L35.4375 2.78125H18.5625Z" fill="#A8B0BC"/>
<path d="M18.5625 2.78125L21.9375 6.34375H29.5312L32.9062 2.78125H18.5625Z" fill="#B9C0C9"/>
<path d="M13.5 9.90625H40.5V49.0938H13.5V9.90625Z" fill="#8BD2F5"/>
<path d="M13.5 9.90625H37.9688V49.0938H13.5V9.90625Z" fill="#A2DBF7"/>
<path d="M3.375 20.5938H20.25V33.0625H3.375V20.5938Z" fill="#DCDFE4"/>
<path d="M8.4375 33.0625V29.5C8.4375 27.5326 9.94866 25.9375 11.8125 25.9375C13.6763 25.9375 15.1875 27.5326 15.1875 29.5V33.0625H8.4375Z" fill="#714F35"/>
<path d="M10.5469 26.202C9.31078 26.7311 8.4375 28.0055 8.4375 29.5V33.0625H12.6562V29.5C12.6562 28.0055 11.783 26.7311 10.5469 26.202Z" fill="#976947"/>
<path d="M19.4062 22.375C18.0082 22.375 16.875 21.1789 16.875 19.7031V15.25H21.9375V19.7031C21.9375 21.1789 20.8043 22.375 19.4062 22.375Z" fill="#71995F"/>
<path d="M18.1406 22.0045C18.8941 21.5414 19.4062 20.6899 19.4062 19.7031V15.25H16.875V19.7031C16.875 20.6899 17.3872 21.5414 18.1406 22.0045Z" fill="#96CC7F"/>
<path d="M14.3438 22.375C12.9457 22.375 11.8125 21.1789 11.8125 19.7031V15.25H16.875V19.7031C16.875 21.1789 15.7418 22.375 14.3438 22.375Z" fill="#71995F"/>
<path d="M13.0781 22.0045C13.8316 21.5414 14.3438 20.6899 14.3438 19.7031V15.25H11.8125V19.7031C11.8125 20.6899 12.3247 21.5414 13.0781 22.0045Z" fill="#96CC7F"/>
<path d="M9.28125 22.375C7.88316 22.375 6.75 21.1789 6.75 19.7031V15.25H11.8125V19.7031C11.8125 21.1789 10.6793 22.375 9.28125 22.375Z" fill="#71995F"/>
<path d="M8.01562 22.0045C8.76909 21.5414 9.28125 20.6899 9.28125 19.7031V15.25H6.75V19.7031C6.75 20.6899 7.26216 21.5414 8.01562 22.0045Z" fill="#96CC7F"/>
<path d="M4.21875 22.375C2.82066 22.375 1.6875 21.1789 1.6875 19.7031V15.25H6.75V19.7031C6.75 21.1789 5.61684 22.375 4.21875 22.375Z" fill="#71995F"/>
<path d="M2.95312 22.0045C3.70659 21.5414 4.21875 20.6899 4.21875 19.7031V15.25H1.6875V19.7031C1.6875 20.6899 2.19966 21.5414 2.95312 22.0045Z" fill="#96CC7F"/>
<path d="M1.6875 47.3125C3.28134 46.7514 4.53094 45.4324 5.0625 43.75C5.59406 45.4324 6.84366 46.7514 8.4375 47.3125C6.84366 47.8736 5.59406 49.1926 5.0625 50.875C4.53094 49.1926 3.28134 47.8736 1.6875 47.3125Z" fill="#F7D881"/>
<path d="M40.5 43.75L35.7674 37.3268C35.0063 36.2946 34.5938 35.0245 34.5938 33.7171C34.5938 32.1576 35.181 30.6623 36.2256 29.5597L36.3378 29.4412C37.3815 28.3386 38.799 27.7188 40.2764 27.7188H40.7244C42.2018 27.7188 43.6185 28.3386 44.6631 29.4412L44.7753 29.5597C45.819 30.6614 46.4062 32.1576 46.4062 33.7171C46.4062 35.0245 45.9937 36.2946 45.2326 37.3268L40.5 43.75Z" fill="#E0747C"/>
<path d="M40.5 36.625C41.898 36.625 43.0312 35.4288 43.0312 33.9531C43.0312 32.4775 41.898 31.2812 40.5 31.2812C39.102 31.2812 37.9688 32.4775 37.9688 33.9531C37.9688 35.4288 39.102 36.625 40.5 36.625Z" fill="#B9C0C9"/>
<path d="M39.2344 36.2545C39.9334 36.2545 40.5 35.2241 40.5 33.9531C40.5 32.6821 39.9334 31.6517 39.2344 31.6517C38.5354 31.6517 37.9688 32.6821 37.9688 33.9531C37.9688 35.2241 38.5354 36.2545 39.2344 36.2545Z" fill="#CBD0D7"/>
<path d="M23.625 51.7656H30.375V53.5469H23.625V51.7656Z" fill="white"/>
<path d="M45.5625 11.6875C47.1563 11.1264 48.4059 9.80739 48.9375 8.125C49.4691 9.80739 50.7187 11.1264 52.3125 11.6875C50.7187 12.2486 49.4691 13.5676 48.9375 15.25C48.4059 13.5676 47.1563 12.2486 45.5625 11.6875Z" fill="#F7D881"/>
<path d="M31.2188 30.3906H29.5312V29.5303C29.5312 27.9681 30.0586 26.495 31.0162 25.3826C31.9807 24.264 33.3214 23.6219 34.6958 23.6219H35.4375V25.4031H34.6958C33.7821 25.4031 32.9198 25.8217 32.265 26.5814C31.6001 27.3527 31.2188 28.4277 31.2188 29.5303V30.3906Z" fill="white"/>
<path d="M27.8438 30.3906H26.1562V28.9558C26.1562 26.5004 26.9831 24.1874 28.485 22.4436C29.9852 20.7024 32.0684 19.7031 34.2022 19.7031H35.4375V21.4844H34.2022C32.519 21.4844 30.9327 22.2503 29.7338 23.6424C28.5331 25.0371 27.8438 26.9733 27.8438 28.9558V30.3906Z" fill="white"/>
<path d="M58.1626 19.0078L68.6216 45.1113L79.0806 19.0078H84.5518V51H80.333V38.5415L80.7285 25.0942L70.2256 51H66.9956L56.5146 25.1602L56.9321 38.5415V51H52.7134V19.0078H58.1626ZM106.041 51C105.807 50.5312 105.616 49.6963 105.47 48.4951C103.58 50.458 101.324 51.4395 98.7021 51.4395C96.3584 51.4395 94.4321 50.7803 92.9233 49.4619C91.4292 48.1289 90.6821 46.4443 90.6821 44.4082C90.6821 41.9326 91.6196 40.0137 93.4946 38.6514C95.3843 37.2744 98.0356 36.5859 101.449 36.5859H105.404V34.7183C105.404 33.2974 104.979 32.1694 104.129 31.3345C103.28 30.4849 102.027 30.0601 100.372 30.0601C98.9219 30.0601 97.7061 30.4263 96.7246 31.1587C95.7432 31.8911 95.2524 32.7773 95.2524 33.8174H91.1655C91.1655 32.6309 91.583 31.4883 92.418 30.3896C93.2676 29.2764 94.4102 28.3975 95.8457 27.7529C97.2959 27.1084 98.8853 26.7861 100.614 26.7861C103.353 26.7861 105.499 27.4746 107.052 28.8516C108.604 30.2139 109.41 32.0962 109.469 34.4985V45.4409C109.469 47.6235 109.747 49.3594 110.304 50.6484V51H106.041ZM99.2954 47.9019C100.57 47.9019 101.778 47.5723 102.921 46.9131C104.063 46.2539 104.891 45.397 105.404 44.3423V39.4644H102.218C97.2373 39.4644 94.7471 40.9219 94.7471 43.8369C94.7471 45.1113 95.1719 46.1074 96.0215 46.8252C96.8711 47.543 97.9624 47.9019 99.2954 47.9019ZM127.333 30.873C126.717 30.7705 126.051 30.7192 125.333 30.7192C122.667 30.7192 120.858 31.8545 119.906 34.125V51H115.841V27.2256H119.796L119.862 29.9722C121.195 27.8481 123.084 26.7861 125.531 26.7861C126.322 26.7861 126.922 26.8887 127.333 27.0938V30.873ZM137.726 39.9917L135.177 42.6504V51H131.112V17.25H135.177V37.6626L137.352 35.0479L144.757 27.2256H149.701L140.45 37.1572L150.777 51H146.009L137.726 39.9917ZM163.324 51.4395C160.101 51.4395 157.479 50.3848 155.458 48.2754C153.436 46.1514 152.425 43.3169 152.425 39.772V39.0249C152.425 36.6665 152.872 34.5645 153.766 32.7188C154.674 30.8584 155.934 29.4082 157.545 28.3682C159.171 27.3135 160.929 26.7861 162.818 26.7861C165.909 26.7861 168.312 27.8042 170.025 29.8403C171.739 31.8765 172.596 34.7915 172.596 38.5854V40.2773H156.49C156.549 42.6211 157.23 44.5181 158.534 45.9683C159.852 47.4038 161.522 48.1216 163.543 48.1216C164.979 48.1216 166.195 47.8286 167.191 47.2427C168.187 46.6567 169.059 45.8804 169.806 44.9136L172.289 46.8472C170.296 49.9087 167.308 51.4395 163.324 51.4395ZM162.818 30.126C161.178 30.126 159.801 30.7266 158.688 31.9277C157.574 33.1143 156.886 34.7842 156.622 36.9375H168.531V36.6299C168.414 34.5645 167.857 32.9678 166.861 31.8398C165.865 30.6973 164.518 30.126 162.818 30.126ZM182.835 21.4688V27.2256H187.274V30.3677H182.835V45.1113C182.835 46.0635 183.033 46.7812 183.429 47.2646C183.824 47.7334 184.498 47.9678 185.45 47.9678C185.919 47.9678 186.563 47.8799 187.384 47.7041V51C186.314 51.293 185.274 51.4395 184.264 51.4395C182.447 51.4395 181.078 50.8901 180.155 49.7915C179.232 48.6929 178.771 47.1328 178.771 45.1113V30.3677H174.442V27.2256H178.771V21.4688H182.835ZM192.679 51V19.0078H203.138C206.61 19.0078 209.217 19.7256 210.96 21.1611C212.718 22.5967 213.597 24.7207 213.597 27.5332C213.597 29.0273 213.172 30.353 212.323 31.5103C211.473 32.6528 210.316 33.5391 208.851 34.1689C210.58 34.6523 211.942 35.5752 212.938 36.9375C213.949 38.2852 214.454 39.8965 214.454 41.7715C214.454 44.6426 213.524 46.8984 211.664 48.5391C209.803 50.1797 207.174 51 203.775 51H192.679ZM196.898 36.0366V47.5503H203.863C205.826 47.5503 207.372 47.0449 208.5 46.0342C209.642 45.0088 210.213 43.6025 210.213 41.8154C210.213 37.9629 208.119 36.0366 203.929 36.0366H196.898ZM196.898 32.6528H203.27C205.116 32.6528 206.588 32.1914 207.687 31.2686C208.8 30.3457 209.356 29.0933 209.356 27.5112C209.356 25.7534 208.844 24.479 207.818 23.688C206.793 22.8823 205.233 22.4795 203.138 22.4795H196.898V32.6528ZM219.002 38.8931C219.002 36.564 219.457 34.4692 220.365 32.6089C221.288 30.7485 222.562 29.313 224.188 28.3022C225.829 27.2915 227.696 26.7861 229.791 26.7861C233.028 26.7861 235.643 27.9067 237.635 30.1479C239.642 32.3892 240.646 35.3701 240.646 39.0908V39.3765C240.646 41.6909 240.199 43.771 239.305 45.6167C238.426 47.4478 237.159 48.876 235.504 49.9014C233.863 50.9268 231.974 51.4395 229.835 51.4395C226.612 51.4395 223.998 50.3188 221.991 48.0776C219.999 45.8364 219.002 42.8701 219.002 39.1787V38.8931ZM223.089 39.3765C223.089 42.0132 223.697 44.1299 224.913 45.7266C226.144 47.3232 227.784 48.1216 229.835 48.1216C231.9 48.1216 233.541 47.3159 234.757 45.7046C235.973 44.0786 236.581 41.8081 236.581 38.8931C236.581 36.2856 235.958 34.1763 234.713 32.5649C233.482 30.939 231.842 30.126 229.791 30.126C227.784 30.126 226.166 30.9243 224.935 32.521C223.705 34.1177 223.089 36.4028 223.089 39.3765ZM244.667 38.8931C244.667 36.564 245.121 34.4692 246.029 32.6089C246.952 30.7485 248.226 29.313 249.852 28.3022C251.493 27.2915 253.36 26.7861 255.455 26.7861C258.692 26.7861 261.307 27.9067 263.299 30.1479C265.306 32.3892 266.31 35.3701 266.31 39.0908V39.3765C266.31 41.6909 265.863 43.771 264.969 45.6167C264.09 47.4478 262.823 48.876 261.168 49.9014C259.527 50.9268 257.638 51.4395 255.499 51.4395C252.276 51.4395 249.662 50.3188 247.655 48.0776C245.663 45.8364 244.667 42.8701 244.667 39.1787V38.8931ZM248.753 39.3765C248.753 42.0132 249.361 44.1299 250.577 45.7266C251.808 47.3232 253.448 48.1216 255.499 48.1216C257.564 48.1216 259.205 47.3159 260.421 45.7046C261.637 44.0786 262.245 41.8081 262.245 38.8931C262.245 36.2856 261.622 34.1763 260.377 32.5649C259.146 30.939 257.506 30.126 255.455 30.126C253.448 30.126 251.83 30.9243 250.599 32.521C249.369 34.1177 248.753 36.4028 248.753 39.3765ZM278.043 39.9917L275.494 42.6504V51H271.429V17.25H275.494V37.6626L277.669 35.0479L285.074 27.2256H290.018L280.768 37.1572L291.095 51H286.327L278.043 39.9917Z" fill="white"/>
</svg>
