<svg width="300" height="46" viewBox="0 0 300 46" fill="none" xmlns="http://www.w3.org/2000/svg">
<g clip-path="url(#clip0)">
<path d="M35.1562 44.5625H14.8438C13.5492 44.5625 12.5 43.5972 12.5 42.4062V3.59375C12.5 2.40278 13.5492 1.4375 14.8438 1.4375H35.1562C36.4508 1.4375 37.5 2.40278 37.5 3.59375V42.4062C37.5 43.5972 36.4508 44.5625 35.1562 44.5625Z" fill="#58616C"/>
<path d="M35.1562 42.4062V3.59375C35.1562 2.40278 34.107 1.4375 32.8125 1.4375H14.8438C13.5492 1.4375 12.5 2.40278 12.5 3.59375V42.4062C12.5 43.5972 13.5492 44.5625 14.8438 44.5625H32.8125C34.107 44.5625 35.1562 43.5972 35.1562 42.4062Z" fill="#758190"/>
<path d="M17.1875 1.4375L20.3125 4.3125H29.6875L32.8125 1.4375H17.1875Z" fill="#A8B0BC"/>
<path d="M17.1875 1.4375L20.3125 4.3125H27.3438L30.4688 1.4375H17.1875Z" fill="#B9C0C9"/>
<path d="M12.5 7.1875H37.5V38.8125H12.5V7.1875Z" fill="#8BD2F5"/>
<path d="M12.5 7.1875H35.1562V38.8125H12.5V7.1875Z" fill="#A2DBF7"/>
<path d="M3.125 15.8125H18.75V25.875H3.125V15.8125Z" fill="#DCDFE4"/>
<path d="M7.8125 25.875V23C7.8125 21.4123 9.21172 20.125 10.9375 20.125C12.6633 20.125 14.0625 21.4123 14.0625 23V25.875H7.8125Z" fill="#714F35"/>
<path d="M9.76562 20.3385C8.62109 20.7654 7.8125 21.7939 7.8125 23V25.875H11.7188V23C11.7188 21.7939 10.9102 20.7654 9.76562 20.3385Z" fill="#976947"/>
<path d="M17.9688 17.25C16.6742 17.25 15.625 16.2847 15.625 15.0938V11.5H20.3125V15.0938C20.3125 16.2847 19.2633 17.25 17.9688 17.25Z" fill="#71995F"/>
<path d="M16.7969 16.951C17.4945 16.5773 17.9688 15.8901 17.9688 15.0938V11.5H15.625V15.0938C15.625 15.8901 16.0992 16.5773 16.7969 16.951Z" fill="#96CC7F"/>
<path d="M13.2812 17.25C11.9867 17.25 10.9375 16.2847 10.9375 15.0938V11.5H15.625V15.0938C15.625 16.2847 14.5758 17.25 13.2812 17.25Z" fill="#71995F"/>
<path d="M12.1094 16.951C12.807 16.5773 13.2812 15.8901 13.2812 15.0938V11.5H10.9375V15.0938C10.9375 15.8901 11.4117 16.5773 12.1094 16.951Z" fill="#96CC7F"/>
<path d="M8.59375 17.25C7.29922 17.25 6.25 16.2847 6.25 15.0938V11.5H10.9375V15.0938C10.9375 16.2847 9.88828 17.25 8.59375 17.25Z" fill="#71995F"/>
<path d="M7.42188 16.951C8.11953 16.5773 8.59375 15.8901 8.59375 15.0938V11.5H6.25V15.0938C6.25 15.8901 6.72422 16.5773 7.42188 16.951Z" fill="#96CC7F"/>
<path d="M3.90625 17.25C2.61172 17.25 1.5625 16.2847 1.5625 15.0938V11.5H6.25V15.0938C6.25 16.2847 5.20078 17.25 3.90625 17.25Z" fill="#71995F"/>
<path d="M2.73438 16.951C3.43203 16.5773 3.90625 15.8901 3.90625 15.0938V11.5H1.5625V15.0938C1.5625 15.8901 2.03672 16.5773 2.73438 16.951Z" fill="#96CC7F"/>
<path d="M1.5625 37.375C3.03828 36.9222 4.19531 35.8577 4.6875 34.5C5.17969 35.8577 6.33672 36.9222 7.8125 37.375C6.33672 37.8278 5.17969 38.8923 4.6875 40.25C4.19531 38.8923 3.03828 37.8278 1.5625 37.375Z" fill="#F7D881"/>
<path d="M37.5 34.5L33.118 29.3164C32.4133 28.4833 32.0312 27.4584 32.0312 26.4033C32.0312 25.1448 32.575 23.938 33.5422 23.0482L33.6461 22.9526C34.6125 22.0627 35.925 21.5625 37.293 21.5625H37.7078C39.0758 21.5625 40.3875 22.0627 41.3547 22.9526L41.4586 23.0482C42.425 23.9373 42.9688 25.1448 42.9688 26.4033C42.9688 27.4584 42.5867 28.4833 41.882 29.3164L37.5 34.5Z" fill="#E0747C"/>
<path d="M37.5 28.75C38.7944 28.75 39.8438 27.7846 39.8438 26.5938C39.8438 25.4029 38.7944 24.4375 37.5 24.4375C36.2056 24.4375 35.1562 25.4029 35.1562 26.5938C35.1562 27.7846 36.2056 28.75 37.5 28.75Z" fill="#B9C0C9"/>
<path d="M36.3281 28.451C36.9753 28.451 37.5 27.6195 37.5 26.5938C37.5 25.568 36.9753 24.7365 36.3281 24.7365C35.6809 24.7365 35.1562 25.568 35.1562 26.5938C35.1562 27.6195 35.6809 28.451 36.3281 28.451Z" fill="#CBD0D7"/>
<path d="M21.875 40.9688H28.125V42.4062H21.875V40.9688Z" fill="white"/>
<path d="M42.1875 8.625C43.6633 8.17219 44.8203 7.10772 45.3125 5.75C45.8047 7.10772 46.9617 8.17219 48.4375 8.625C46.9617 9.07781 45.8047 10.1423 45.3125 11.5C44.8203 10.1423 43.6633 9.07781 42.1875 8.625Z" fill="#F7D881"/>
<path d="M28.9062 23.7188H27.3438V23.0244C27.3438 21.7637 27.832 20.5749 28.7187 19.6772C29.6117 18.7745 30.8531 18.2562 32.1258 18.2562H32.8125V19.6937H32.1258C31.2797 19.6937 30.4813 20.0316 29.875 20.6447C29.2594 21.2671 28.9062 22.1346 28.9062 23.0244V23.7188Z" fill="white"/>
<path d="M25.7812 23.7188H24.2188V22.5608C24.2188 20.5792 24.9844 18.7127 26.375 17.3053C27.7641 15.9002 29.693 15.0938 31.6687 15.0938H32.8125V16.5312H31.6687C30.1102 16.5312 28.6414 17.1494 27.5313 18.2728C26.4195 19.3983 25.7812 20.9609 25.7812 22.5608V23.7188Z" fill="white"/>
<path d="M50 41.875V20H56.25V23.125H59.375V26.25H62.5V23.125H65.625V20H71.875V41.875H65.625V29.375H62.5V35.625H59.375V29.375H56.25V41.875H50ZM78.125 41.875V38.75H75V35.625H78.125V32.5H90.625V29.375H78.125V26.25H93.75V29.375H96.875V41.875H78.125ZM81.25 38.75H90.625V35.625H81.25V38.75ZM109.375 29.375H112.5V32.5H109.375V41.875H103.125V26.25H109.375V29.375ZM121.875 26.25V29.375H112.5V26.25H121.875ZM125 41.875V20H131.25V32.5H137.5V29.375H140.625V26.25H146.875V29.375H143.75V32.5H140.625V35.625H143.75V38.75H146.875V41.875H140.625V38.75H137.5V35.625H131.25V41.875H125ZM153.125 41.875V38.75H150V29.375H153.125V26.25H168.75V29.375H171.875V35.625H156.25V38.75H168.75V41.875H153.125ZM156.25 32.5H165.625V29.375H156.25V32.5ZM184.375 41.875V29.375H178.125V26.25H184.375V20H190.625V26.25H196.875V29.375H190.625V41.875H184.375ZM200 41.875V20H218.75V23.125H221.875V29.375H218.75V32.5H221.875V38.75H218.75V41.875H200ZM206.25 29.375H215.625V23.125H206.25V29.375ZM206.25 38.75H215.625V32.5H206.25V38.75ZM228.125 41.875V38.75H225V29.375H228.125V26.25H243.75V29.375H246.875V38.75H243.75V41.875H228.125ZM231.25 38.75H240.625V29.375H231.25V38.75ZM253.125 41.875V38.75H250V29.375H253.125V26.25H268.75V29.375H271.875V38.75H268.75V41.875H253.125ZM256.25 38.75H265.625V29.375H256.25V38.75ZM275 41.875V20H281.25V32.5H287.5V29.375H290.625V26.25H296.875V29.375H293.75V32.5H290.625V35.625H293.75V38.75H296.875V41.875H290.625V38.75H287.5V35.625H281.25V41.875H275Z" fill="white"/>
</g>
<defs>
<clipPath id="clip0">
<rect width="300" height="46" fill="white"/>
</clipPath>
</defs>
</svg>
