<svg width="54" height="57" viewBox="0 0 54 57" fill="none" xmlns="http://www.w3.org/2000/svg">
<path d="M37.9688 55.2188H16.0312C14.6332 55.2188 13.5 54.0226 13.5 52.5469V4.45312C13.5 2.97736 14.6332 1.78125 16.0312 1.78125H37.9688C39.3668 1.78125 40.5 2.97736 40.5 4.45312V52.5469C40.5 54.0226 39.3668 55.2188 37.9688 55.2188Z" fill="#58616C"/>
<path d="M37.9688 52.5469V4.45312C37.9688 2.97736 36.8356 1.78125 35.4375 1.78125H16.0312C14.6332 1.78125 13.5 2.97736 13.5 4.45312V52.5469C13.5 54.0226 14.6332 55.2188 16.0312 55.2188H35.4375C36.8356 55.2188 37.9688 54.0226 37.9688 52.5469Z" fill="#758190"/>
<path d="M18.5625 1.78125L21.9375 5.34375H32.0625L35.4375 1.78125H18.5625Z" fill="#A8B0BC"/>
<path d="M18.5625 1.78125L21.9375 5.34375H29.5312L32.9062 1.78125H18.5625Z" fill="#B9C0C9"/>
<path d="M13.5 8.90625H40.5V48.0938H13.5V8.90625Z" fill="#8BD2F5"/>
<path d="M13.5 8.90625H37.9688V48.0938H13.5V8.90625Z" fill="#A2DBF7"/>
<path d="M3.375 19.5938H20.25V32.0625H3.375V19.5938Z" fill="#DCDFE4"/>
<path d="M8.4375 32.0625V28.5C8.4375 26.5326 9.94866 24.9375 11.8125 24.9375C13.6763 24.9375 15.1875 26.5326 15.1875 28.5V32.0625H8.4375Z" fill="#714F35"/>
<path d="M10.5469 25.202C9.31078 25.7311 8.4375 27.0055 8.4375 28.5V32.0625H12.6562V28.5C12.6562 27.0055 11.783 25.7311 10.5469 25.202Z" fill="#976947"/>
<path d="M19.4062 21.375C18.0082 21.375 16.875 20.1789 16.875 18.7031V14.25H21.9375V18.7031C21.9375 20.1789 20.8043 21.375 19.4062 21.375Z" fill="#71995F"/>
<path d="M18.1406 21.0045C18.8941 20.5414 19.4062 19.6899 19.4062 18.7031V14.25H16.875V18.7031C16.875 19.6899 17.3872 20.5414 18.1406 21.0045Z" fill="#96CC7F"/>
<path d="M14.3438 21.375C12.9457 21.375 11.8125 20.1789 11.8125 18.7031V14.25H16.875V18.7031C16.875 20.1789 15.7418 21.375 14.3438 21.375Z" fill="#71995F"/>
<path d="M13.0781 21.0045C13.8316 20.5414 14.3438 19.6899 14.3438 18.7031V14.25H11.8125V18.7031C11.8125 19.6899 12.3247 20.5414 13.0781 21.0045Z" fill="#96CC7F"/>
<path d="M9.28125 21.375C7.88316 21.375 6.75 20.1789 6.75 18.7031V14.25H11.8125V18.7031C11.8125 20.1789 10.6793 21.375 9.28125 21.375Z" fill="#71995F"/>
<path d="M8.01562 21.0045C8.76909 20.5414 9.28125 19.6899 9.28125 18.7031V14.25H6.75V18.7031C6.75 19.6899 7.26216 20.5414 8.01562 21.0045Z" fill="#96CC7F"/>
<path d="M4.21875 21.375C2.82066 21.375 1.6875 20.1789 1.6875 18.7031V14.25H6.75V18.7031C6.75 20.1789 5.61684 21.375 4.21875 21.375Z" fill="#71995F"/>
<path d="M2.95312 21.0045C3.70659 20.5414 4.21875 19.6899 4.21875 18.7031V14.25H1.6875V18.7031C1.6875 19.6899 2.19966 20.5414 2.95312 21.0045Z" fill="#96CC7F"/>
<path d="M1.6875 46.3125C3.28134 45.7514 4.53094 44.4324 5.0625 42.75C5.59406 44.4324 6.84366 45.7514 8.4375 46.3125C6.84366 46.8736 5.59406 48.1926 5.0625 49.875C4.53094 48.1926 3.28134 46.8736 1.6875 46.3125Z" fill="#F7D881"/>
<path d="M40.5 42.75L35.7674 36.3268C35.0063 35.2946 34.5938 34.0245 34.5938 32.7171C34.5938 31.1576 35.181 29.6623 36.2256 28.5597L36.3378 28.4412C37.3815 27.3386 38.799 26.7188 40.2764 26.7188H40.7244C42.2018 26.7188 43.6185 27.3386 44.6631 28.4412L44.7753 28.5597C45.819 29.6614 46.4062 31.1576 46.4062 32.7171C46.4062 34.0245 45.9937 35.2946 45.2326 36.3268L40.5 42.75Z" fill="#E0747C"/>
<path d="M40.5 35.625C41.898 35.625 43.0312 34.4288 43.0312 32.9531C43.0312 31.4775 41.898 30.2812 40.5 30.2812C39.102 30.2812 37.9688 31.4775 37.9688 32.9531C37.9688 34.4288 39.102 35.625 40.5 35.625Z" fill="#B9C0C9"/>
<path d="M39.2344 35.2545C39.9334 35.2545 40.5 34.2241 40.5 32.9531C40.5 31.6821 39.9334 30.6517 39.2344 30.6517C38.5354 30.6517 37.9688 31.6821 37.9688 32.9531C37.9688 34.2241 38.5354 35.2545 39.2344 35.2545Z" fill="#CBD0D7"/>
<path d="M23.625 50.7656H30.375V52.5469H23.625V50.7656Z" fill="white"/>
<path d="M45.5625 10.6875C47.1563 10.1264 48.4059 8.80739 48.9375 7.125C49.4691 8.80739 50.7187 10.1264 52.3125 10.6875C50.7187 11.2486 49.4691 12.5676 48.9375 14.25C48.4059 12.5676 47.1563 11.2486 45.5625 10.6875Z" fill="#F7D881"/>
<path d="M31.2188 29.3906H29.5312V28.5303C29.5312 26.9681 30.0586 25.495 31.0162 24.3826C31.9807 23.264 33.3214 22.6219 34.6958 22.6219H35.4375V24.4031H34.6958C33.7821 24.4031 32.9198 24.8217 32.265 25.5814C31.6001 26.3527 31.2188 27.4277 31.2188 28.5303V29.3906Z" fill="white"/>
<path d="M27.8438 29.3906H26.1562V27.9558C26.1562 25.5004 26.9831 23.1874 28.485 21.4436C29.9852 19.7024 32.0684 18.7031 34.2022 18.7031H35.4375V20.4844H34.2022C32.519 20.4844 30.9327 21.2503 29.7338 22.6424C28.5331 24.0371 27.8438 25.9733 27.8438 27.9558V29.3906Z" fill="white"/>
</svg>
